# xmcd
#
# Track frame offsets: 
#        150
#        19405
#        40354
#        80513
#        108733
#        130236
#        156362
#        171605
#        205152
#        218777
#        248999
#
# Disc length: 3532 seconds
#
# Revision: 0
# Processed by: cddbd v1.4PL0 Copyright (c) Steve Scherf et al.
# Submitted via: ExactAudioCopy v0.90b3
#
DISCID=a50dca0b
DTITLE=Нон-стоп квартет - Live
DYEAR=2002
DGENRE=Instrumental
TTITLE0="Маленький детектив"
TTITLE1="Поппури 40"
TTITLE2="Кармен-Фантазия"
TTITLE3=Медитация на тему русской песни "Калинка"
TTITLE4="Визбориана"
TTITLE5="Откровение"
TTITLE6="Е.М.Д."
TTITLE7=Концертино на две русские темы
TTITLE8=Импровиз на тему А.Цыганкова
TTITLE9=Пьеса-шутка "Ка-Ра-Бейники"
TTITLE10="Баня"
EXTD=
EXTT0=
EXTT1=
EXTT2=
EXTT3=
EXTT4=
EXTT5=
EXTT6=
EXTT7=
EXTT8=
EXTT9=
EXTT10=
PLAYORDER=
